Coordinates
version=1
nRows=11
nColumns=63
inDegrees=yes

Units are S.I. units (second, meters, Newtons, ...)
If the header above contains a line with 'inDegrees', this indicates whether rotational values are in degrees (yes) or radians (no).

endheader
time	pelvis_tilt	pelvis_list	pelvis_rotation	pelvis_tx	pelvis_ty	pelvis_tz	hip_flexion_r	hip_adduction_r	hip_rotation_r	knee_angle_r	knee_angle_r_beta	ankle_angle_r	subtalar_angle_r	mtp_angle_r	hip_flexion_l	hip_adduction_l	hip_rotation_l	knee_angle_l	knee_angle_l_beta	ankle_angle_l	subtalar_angle_l	mtp_angle_l	L5_S1_Flex_Ext	L5_S1_Lat_Bending	L5_S1_axial_rotation	L4_L5_Flex_Ext	L4_L5_Lat_Bending	L4_L5_axial_rotation	L3_L4_Flex_Ext	L3_L4_Lat_Bending	L3_L4_axial_rotation	L2_L3_Flex_Ext	L2_L3_Lat_Bending	L2_L3_axial_rotation	L1_L2_Flex_Ext	L1_L2_Lat_Bending	L1_L2_axial_rotation	L1_T12_Flex_Ext	L1_T12_Lat_Bending	L1_T12_axial_rotation	Abs_r3	Abs_r2	Abs_r1	Abs_t1	Abs_t2	neck_flexion	neck_bending	neck_rotation	arm_flex_r	arm_add_r	arm_rot_r	elbow_flex_r	pro_sup_r	wrist_flex_r	wrist_dev_r	arm_flex_l	arm_add_l	arm_rot_l	elbow_flex_l	pro_sup_l	wrist_flex_l	wrist_dev_l
      1.30000000	      1.80818383	     -9.27258199	     17.93772687	     -2.04737975	      0.91071015	      0.33152442	     16.69478521	      4.00351671	    -24.04569485	     24.98640348	      0.43609501	      8.92188466	     -8.49013035	      0.00000000	      6.68232130	     -8.74078063	     17.48775728	     59.20266272	      1.03328139	     -0.18352019	    -17.07549344	      0.00000000	      0.01796454	      0.94170925	     -2.31602831	      0.03336194	      1.25247331	     -2.46078008	      0.02951394	      2.28967188	     -2.46078008	      0.02053167	      2.28967188	     -2.02652477	      0.01668187	      1.92033351	     -1.88177300	      0.01026494	      1.45870763	     -1.73702123	      0.12831889	     10.65280342	    -12.88105464	      0.00000000	      0.00000000	     -0.00000000	      0.00000000	      0.00000000	      7.76511611	    -20.68812313	    124.10484220	     22.58749968	     55.31561878	      0.00000000	      5.00059381	      1.08421599	     -7.56924225	     37.35127635	     19.10593492	     60.40290881	      0.00000000	      5.00059381
      1.33333333	      1.51750159	     -8.24806008	     14.09408257	     -2.01926552	      0.91683273	      0.33957503	     14.10705559	      4.55249164	    -21.97125571	     23.36214106	      0.40774628	      9.72130515	     -5.57162073	      0.00000000	     10.76299149	     -6.74648779	     13.95136736	     64.78440726	      1.13070121	     -2.96824340	    -18.70366063	      0.00000000	      0.01531301	      0.84960976	     -1.53818737	      0.02843779	      1.12998098	     -1.63432408	      0.02515774	      2.06574117	     -1.63432408	      0.01750124	      2.06574117	     -1.34591395	      0.01421966	      1.73252422	     -1.24977724	      0.00874985	      1.31604552	     -1.15364053	      0.10937928	      9.61095553	     -8.55493669	      0.00000000	      0.00000000	     -0.00000000	      0.00000000	      0.00000000	      7.21896378	    -21.85403526	    108.00271920	     20.90154979	     50.19022625	      0.00000000	      5.00040740	     -0.17061099	     -8.54007771	     35.47247240	     21.42377492	     59.29347415	      0.00000000	      5.00040740
      1.36666667	      1.15858851	     -7.15217854	      9.72220421	     -1.99209336	      0.92267750	      0.34774526	     11.50124453	      4.75554805	    -19.60163238	     21.40937311	      0.37366405	     10.23326531	     -2.53965664	      0.00000000	     15.30856757	     -5.28612270	      9.64428355	     68.80929360	      1.20094873	     -2.92809875	    -19.17572694	      0.00000000	      0.01020875	      0.75435297	     -0.67286112	      0.01895867	      1.00328945	     -0.71491494	      0.01677195	      1.83413380	     -0.71491494	      0.01166758	      1.83413380	     -0.58875348	      0.00947984	      1.53827657	     -0.54669966	      0.00583328	      1.16849275	     -0.50464584	      0.07292007	      8.53339163	     -3.74225170	      0.00000000	      0.00000000	      0.00000000	      0.00000000	      0.00000000	      5.11478932	    -22.71851043	     78.63022100	     20.74772255	     56.17651724	      0.00000000	      4.99988293	     -1.49265129	    -10.14189582	     35.54457968	     24.92739473	     57.46579612	      0.00000000	      4.99988293
      1.40000000	      0.84919459	     -6.06684181	      5.20513553	     -1.96518390	      0.92797313	      0.35589934	      8.69691700	      4.85045104	    -16.30042941	     18.92888059	      0.33037129	     10.24629735	     -0.49818108	      0.00000000	     19.98012317	     -4.61352688	      5.03622173	     70.77310489	      1.23522370	     -0.91858793	    -19.32823746	      0.00000000	      0.00457148	      0.65479323	      0.19735249	      0.00848970	      0.87087500	      0.20968702	      0.00751049	      1.59206426	      0.20968702	      0.00522475	      1.59206426	      0.17268343	      0.00424508	      1.33525436	      0.16034889	      0.00261215	      1.01427472	      0.14801436	      0.03265364	      7.40715199	      1.09761532	      0.00000000	      0.00000000	      0.00000000	      0.00000000	      0.00000000	      3.79543898	    -22.31760729	     55.80666953	     22.08579361	     47.99322107	      0.00000000	      4.99991888	     -3.09982901	    -11.86979782	     34.90936710	     28.94797177	     56.91628255	      0.00000000	      4.99991888
      1.43333333	      0.63667086	     -5.04740153	      0.84805368	     -1.93808427	      0.93231247	      0.36383802	      5.51734157	      4.86367627	    -12.05919638	     15.81905843	      0.27609465	      9.83763985	      0.51003343	      0.00000000	     24.29625781	     -4.82229385	      0.42122023	     70.19219508	      1.22508491	      2.14267558	    -19.35913840	      0.00000000	     -0.00059445	      0.55335880	      1.03280022	     -0.00110395	      0.73596720	      1.09735023	     -0.00097662	      1.34543659	      1.09735023	     -0.00067940	      1.34543659	      0.90370019	     -0.00055201	      1.12840926	      0.83915018	     -0.00033967	      0.85715278	      0.77460017	     -0.00424609	      6.25970542	      5.74412499	      0.00000000	      0.00000000	      0.00000000	      0.00000000	      0.00000000	      3.57766251	    -21.47384605	     39.50184262	     24.42577670	     44.09566464	      0.00000000	      4.99994200	     -4.39767936	    -13.59162640	     35.60060213	     32.29030982	     56.27453424	      0.00000000	      4.99994200
      1.46666667	      0.47732092	     -4.03261886	     -3.15836403	     -1.91061610	      0.93511743	      0.37153113	      2.01857210	      4.68125014	     -6.47563337	     12.25909879	      0.21396164	      9.06823797	     -0.11719002	      0.00000000	     27.87773772	     -5.67949175	     -4.04276959	     66.86851383	      1.16707573	      5.24379603	    -19.32214531	      0.00000000	     -0.00516354	      0.43947907	      1.78692082	     -0.00958922	      0.58450716	      1.89860338	     -0.00848319	      1.06854940	      1.89860338	     -0.00590141	      1.06854940	      1.56355572	     -0.00479487	      0.89618571	      1.45187317	     -0.00295045	      0.68075307	      1.34019062	     -0.03688268	      4.97147510	      9.93831755	      0.00000000	      0.00000000	      0.00000000	      0.00000000	      0.00000000	      4.39152856	    -20.64289821	     29.80313763	     26.74238625	     42.13179191	      0.00000000	      4.99995149	     -5.68746275	    -14.87118257	     34.96118258	     34.73530991	     55.61473328	      0.00000000	      4.99995149
      1.50000000	      0.30196731	     -2.94550852	     -6.65413631	     -1.88300607	      0.93581256	      0.37867684	     -1.39613041	      3.96138448	     -1.14121976	      8.99562698	      0.15700331	      8.52429940	     -0.51834666	      0.00000000	     30.63076714	     -6.73601328	     -8.13793584	     61.01563264	      1.06492368	      7.46967768	    -19.20001177	      0.00000000	     -0.00791637	      0.30619973	      2.44076215	     -0.01470150	      0.40724565	      2.59330978	     -0.01300581	      0.74449403	      2.59330978	     -0.00904762	      0.74449403	      2.13566688	     -0.00735114	      0.62440250	      1.98311924	     -0.00452342	      0.47430339	      1.83057161	     -0.05654586	      3.46379262	     13.57478683	      0.00000000	      0.00000000	      0.00000000	      0.00000000	      0.00000000	      5.64405922	    -19.79142256	     23.45069000	     28.97447822	     40.96367602	      0.00000000	      4.99995855	     -6.63768157	    -15.90166116	     34.17053057	     36.35444990	     54.95358119	      0.00000000	      4.99995855
      1.53333333	      0.11675835	     -1.91302213	     -9.60161798	     -1.85530664	      0.93431847	      0.38505926	     -4.37635198	      2.84087550	      2.36413703	      6.68223870	      0.11662707	      8.72126745	      1.13138106	      0.00000000	     32.43005393	     -7.77501128	    -11.77587865	     52.96033424	      0.92433221	      8.12694757	    -18.89897889	      0.00000000	     -0.01094247	      0.17046085	      2.95964613	     -0.02032127	      0.22671293	      3.14462401	     -0.01797739	      0.41445851	      3.14462401	     -0.01250615	      0.41445851	      2.58969036	     -0.01016118	      0.34760377	      2.40471248	     -0.00625253	      0.26404386	      2.21973460	     -0.07816099	      1.92828723	     16.46066387	      0.00000000	      0.00000000	      0.00000000	      0.00000000	      0.00000000	      7.50220512	    -19.29094836	     21.63448330	     30.78216682	     40.64100675	      0.00000000	      4.99996048	     -7.25909591	    -16.68513658	     33.23128702	     37.27020367	     54.64293187	      0.00000000	      4.99996048
      1.56666667	     -0.11252494	     -0.92413765	    -11.79022825	     -1.82705098	      0.93088549	      0.38970233	     -6.73723618	      1.57424342	      5.40605959	      5.52199435	      0.09637698	      9.32665549	      2.10307620	      0.00000000	     33.18907490	     -8.29180939	    -14.78180858	     43.04521442	      0.75128072	      6.85851293	    -17.98318074	      0.00000000	     -0.01616278	      0.03753482	      3.33207307	     -0.03001590	      0.04992131	      3.54032764	     -0.02655384	      0.09126216	      3.54032764	     -0.01847244	      0.09126216	      2.91556394	     -0.01500876	      0.07654100	      2.70730937	     -0.00923541	      0.05814143	      2.49905480	     -0.11544914	      0.42460138	     18.53199079	      0.00000000	      0.00000000	      0.00000000	      0.00000000	      0.00000000	      8.70340490	    -18.28079814	     17.18443677	     33.06857732	     39.72797342	      0.00000000	      4.99996456	     -7.85699151	    -16.95761408	     30.95180797	     37.67164969	     53.96524961	      0.00000000	      4.99996456
      1.60000000	     -0.29153727	     -0.29085473	    -13.52009396	     -1.79734569	      0.92619412	      0.39277534	     -8.69130756	      0.44014681	      6.67698130	      5.28836085	      0.09229931	     10.44493523	      4.31861811	      0.00000000	     32.67408150	     -8.55210924	    -17.40774763	     32.16736948	      0.56142651	      4.39322246	    -15.46968975	      0.00000000	     -0.01832457	     -0.05628926	      3.58668396	     -0.03403056	     -0.07486471	      3.81085170	     -0.03010544	     -0.13686170	      3.81085170	     -0.02094315	     -0.13686170	      3.13834846	     -0.01701620	     -0.11478506	      2.91418071	     -0.01047066	     -0.08719206	      2.69001297	     -0.13089059	     -0.63675536	     19.94806016	      0.00000000	      0.00000000	      0.00000000	      0.00000000	      0.00000000	     10.08895843	    -17.69675717	     15.85164269	     34.64422587	     39.36545174	      0.00000000	      4.99996734	     -8.33287588	    -17.12223986	     29.47329810	     37.46847551	     53.54865403	      0.00000000	      4.99996734
      1.63333333	     -0.38045442	     -0.05363307	    -14.85935409	     -1.76521206	      0.92073682	      0.39395834	    -10.33603395	     -0.52061424	      6.54159717	      5.95425241	      0.10392131	     11.93180470	      7.01730497	      0.00000000	     31.35530123	     -8.60675112	    -19.58195757	     22.24143462	      0.38818626	      1.36088254	    -11.80650596	      0.00000000	     -0.01680466	     -0.10176213	      3.74450737	     -0.03120794	     -0.13534363	      3.97853908	     -0.02760838	     -0.24742444	      3.97853908	     -0.01920605	     -0.24742444	      3.27644395	     -0.01560481	     -0.20751334	      3.04241224	     -0.00960218	     -0.15762954	      2.80838053	     -0.12003402	     -1.15115358	     20.82582663	      0.00000000	      0.00000000	      0.00000000	      0.00000000	      0.00000000	     11.30702710	    -17.28888647	     15.53542956	     35.44506909	     39.21389523	      0.00000000	      4.99996937	     -9.01160930	    -17.14519350	     28.42485444	     36.71893147	     53.30855987	      0.00000000	      4.99996937
